<svg xmlns="http://www.w3.org/2000/svg" viewBox="0 0 100 100" enable-background="new 0 0 100 100"><circle fill="#24396d" cx="50" cy="50" r="50"/><path fill="#1b3460" d="m71.2 76.09l-15.723-22.625 2.264-9.89 6.584-19.75-7.05-5.947-14.743 14.744-16.337 1.165-25.347 25.348c1.776 9.605 6.37 18.791 13.799 26.22 9.09 9.09 20.818 13.947 32.723 14.57l23.835-23.836"/><circle fill="#ff9a8f" cx="64.36" cy="22.09" r="8.25"/><path fill="#ffebd4" d="m63.53 30.841c-.363 1.053-1.658 1.529-2.891 1.067-1.234-.461-1.939-1.687-1.577-2.738l2.606-7.544c.363-1.051 1.656-1.528 2.891-1.066 1.234.461 1.939 1.687 1.576 2.739l-2.605 7.542"/><path fill="#fffcf8" d="m78.44 61.2c0 10.469-8.487 18.955-18.957 18.955h-18.958c-10.47 0-18.958-8.486-18.958-18.957v-15.01c0-10.469 8.487-18.957 18.958-18.957h18.957c10.47 0 18.957 8.488 18.957 18.957v15.01z"/><path fill="#ffc49c" d="m70.923 63.03c0 6.03-4.889 10.92-10.919 10.92h-20.01c-6.03 0-10.919-4.889-10.919-10.92v-12.966c0-6.03 4.889-10.919 10.919-10.919h20.01c6.03 0 10.919 4.888 10.919 10.919v12.966"/><g fill="#2d1505"><path d="m39.668 62.01c0 1.447-1.173 2.619-2.621 2.619-1.447 0-2.621-1.172-2.621-2.619v-10.92c0-1.447 1.174-2.619 2.621-2.619 1.447 0 2.621 1.172 2.621 2.619v10.92"/><path d="m65.57 62.01c0 1.447-1.174 2.619-2.621 2.619-1.447 0-2.621-1.172-2.621-2.619v-10.92c0-1.447 1.174-2.619 2.621-2.619 1.447 0 2.621 1.172 2.621 2.619v10.92"/></g></svg>